{"glyphs":{":":{"x_min":0,"x_max":272,"ha":272,"o":"m 80 298 q 80 321 96 338 q 113 354 136 354 q 159 354 175 338 q 191 321 191 298 q 191 275 175 259 q 159 243 136 243 q 113 243 96 259 q 80 275 80 298 z m 80 45 q 80 68 96 85 q 113 101 136 101 q 159 101 175 85 q 191 68 191 45 q 191 22 175 6 q 159 -10 136 -10 q 113 -10 96 6 q 80 22 80 45 z"},"$":{"x_min":0,"x_max":385,"ha":385,"o":"m 105 142 q 115 108 132 93 q 148 78 176 78 q 216 78 238 105 q 260 132 260 181 q 260 223 244 251 q 229 278 182 312 q 165 325 125 350 q 86 375 74 389 q 48 417 37 449 q 26 481 26 527 q 26 601 52 647 q 77 693 128 712 l 128 816 l 168 816 l 168 720 q 174 721 181 721 q 188 721 201 721 l 212 721 l 212 816 l 252 816 l 252 715 q 283 708 307 685 q 331 661 352 614 l 273 574 q 266 605 248 621 q 230 637 202 637 q 162 637 141 613 q 120 589 120 543 q 120 502 135 476 q 150 449 201 414 q 214 404 239 388 q 294 350 307 335 q 333 305 345 272 q 357 239 357 196 q 357 123 330 72 q 303 21 252 1 l 252 -103 l 212 -103 l 212 -9 q 211 -9 209 -9 q 192 -11 185 -11 q 182 -11 177 -10 q 171 -10 169 -10 l 169 -103 l 128 -103 l 128 -3 q 92 7 67 32 q 42 57 26 98 z"},"?":{"x_min":0,"x_max":274,"ha":274,"o":"m 87 177 l 87 388 l 90 388 q 141 388 158 411 q 176 433 176 525 q 176 596 166 622 q 157 647 133 647 q 108 647 98 625 q 88 604 88 543 l 7 543 l 7 558 q 7 646 37 684 q 66 722 135 722 q 204 722 232 687 q 260 651 260 560 q 260 416 241 373 q 222 331 172 329 l 172 177 z m 72 46 q 72 69 88 86 q 105 102 128 102 q 151 102 168 86 q 184 69 184 46 q 184 23 168 7 q 151 -9 128 -9 q 104 -9 88 7 q 72 23 72 46 z"},"<":{"x_min":0,"x_max":833,"ha":833,"o":"m 704 497 l 216 298 l 704 100 l 704 37 l 129 273 l 129 323 l 704 559 z"},"'":{"x_min":0,"x_max":149,"ha":149,"o":"m 103 700 l 103 430 l 46 430 l 46 700 z"},"=":{"x_min":0,"x_max":833,"ha":833,"o":"m 709 233 l 709 176 l 124 176 l 124 233 z m 709 420 l 709 363 l 124 363 l 124 420 z"},"a":{"x_min":0,"x_max":391,"ha":391,"o":"m 253 0 l 253 47 q 235 18 212 5 q 188 -9 158 -9 q 98 -9 66 54 q 35 117 35 240 q 35 362 66 425 q 97 488 158 488 q 189 488 212 475 q 235 461 253 433 l 253 479 l 341 479 l 341 0 z m 124 240 q 124 148 139 111 q 155 73 190 73 q 225 73 240 111 q 256 149 256 240 q 256 332 241 369 q 226 406 190 406 q 154 406 139 369 q 124 332 124 240 z"},"L":{"x_min":0,"x_max":377,"ha":377,"o":"m 64 0 l 64 713 l 160 713 l 160 89 l 366 89 l 366 0 z"},"3":{"x_min":0,"x_max":385,"ha":385,"o":"m 21 186 l 105 186 q 105 183 104 177 q 104 172 104 169 q 104 124 123 100 q 142 77 179 77 q 218 77 237 106 q 255 136 255 200 q 255 282 230 308 q 206 334 136 334 l 122 334 l 122 412 q 127 412 134 411 q 141 411 153 411 q 208 411 228 436 q 247 460 247 540 q 247 593 232 619 q 217 644 186 644 q 150 644 134 616 q 118 589 116 522 l 34 522 q 34 527 33 533 q 33 540 33 552 q 33 637 70 680 q 107 722 181 722 q 261 722 300 674 q 339 626 339 528 q 339 459 318 422 q 297 384 254 374 q 305 365 327 327 q 349 290 349 211 q 349 96 307 43 q 265 -9 172 -9 q 96 -9 59 35 q 21 80 21 169 z"},";":{"x_min":0,"x_max":272,"ha":272,"o":"m 95 298 q 95 321 111 338 q 127 354 150 354 q 173 354 190 338 q 206 321 206 298 q 206 275 190 259 q 173 243 150 243 q 127 243 111 259 q 95 275 95 298 z m 66 -140 l 131 119 l 206 96 l 115 -155 z"},"J":{"x_min":0,"x_max":303,"ha":303,"o":"m 145 713 l 241 713 l 241 184 q 241 85 205 38 q 168 -10 93 -10 q 66 -10 41 -2 q 16 6 -9 22 l -9 120 q 14 101 35 91 q 55 82 75 82 q 111 82 128 106 q 145 130 145 181 z"},"V":{"x_min":0,"x_max":414,"ha":414,"o":"m 247 0 l 166 0 l 10 713 l 107 713 l 207 229 l 307 713 l 404 713 z"},"\"":{"x_min":0,"x_max":288,"ha":288,"o":"m 242 700 l 242 430 l 184 430 l 184 700 z m 103 700 l 103 430 l 46 430 l 46 700 z"},"7":{"x_min":0,"x_max":385,"ha":385,"o":"m 38 0 l 250 628 l 34 628 l 34 713 l 374 713 l 136 0 z"},"S":{"x_min":0,"x_max":385,"ha":385,"o":"m 46 125 q 80 104 109 94 q 138 84 163 84 q 207 84 233 110 q 259 135 259 178 q 259 241 160 322 q 148 332 142 337 q 79 389 53 434 q 28 479 28 534 q 28 615 79 668 q 130 722 206 722 q 239 722 270 714 q 301 707 331 690 l 331 594 q 303 614 277 623 q 250 633 224 633 q 179 633 151 606 q 124 580 124 535 q 124 474 229 390 q 239 382 244 378 q 305 329 331 283 q 356 238 356 179 q 356 97 304 44 q 251 -9 170 -9 q 140 -9 109 0 q 79 9 46 27 z"},"}":{"x_min":0,"x_max":500,"ha":500,"o":"m 275 543 l 275 424 q 275 350 302 319 q 329 289 395 289 q 398 289 406 290 q 413 290 417 290 l 417 228 q 413 228 406 229 q 398 229 395 229 q 329 229 302 199 q 275 168 275 94 l 275 -24 q 275 -99 264 -130 q 253 -161 227 -178 q 208 -191 179 -197 q 151 -202 101 -202 l 81 -202 l 81 -141 q 85 -141 92 -142 q 100 -142 103 -142 q 162 -142 183 -119 q 204 -96 204 -22 l 204 95 q 204 176 225 210 q 247 244 301 259 q 247 274 225 308 q 204 342 204 423 l 204 541 q 204 614 183 637 q 161 660 100 660 l 81 660 l 81 721 l 98 721 q 147 721 177 715 q 207 709 227 696 q 253 679 264 648 q 275 617 275 543 z"},"Z":{"x_min":0,"x_max":383,"ha":383,"o":"m 9 0 l 240 628 l 43 628 l 43 713 l 371 713 l 142 89 l 351 89 l 351 0 z"},"x":{"x_min":0,"x_max":327,"ha":327,"o":"m 117 254 l 23 479 l 115 479 l 163 341 l 212 479 l 303 479 l 210 254 l 320 0 l 227 0 l 163 167 l 100 0 l 7 0 z"},")":{"x_min":0,"x_max":273,"ha":273,"o":"m 118 787 q 167 665 191 540 q 216 416 216 288 q 216 161 192 37 q 167 -86 118 -210 l 34 -183 q 79 -72 101 45 q 123 162 123 288 q 123 415 101 532 q 79 650 34 760 z"},"&":{"x_min":0,"x_max":509,"ha":509,"o":"m 296 135 l 186 314 q 156 282 141 251 q 127 220 127 188 q 127 141 151 111 q 175 81 212 81 q 234 81 255 94 q 275 107 296 135 z m 209 449 q 251 490 270 522 q 289 554 289 585 q 289 613 273 630 q 256 647 229 647 q 201 647 184 628 q 168 609 168 576 q 168 550 177 521 q 187 493 209 449 z m 377 0 l 340 60 q 307 25 273 9 q 238 -8 201 -8 q 131 -8 85 47 q 39 102 39 185 q 39 236 64 285 q 88 334 142 388 q 112 436 97 484 q 81 532 81 574 q 81 641 121 682 q 161 723 227 723 q 291 723 333 682 q 376 641 376 581 q 376 534 346 484 q 316 435 253 377 l 359 205 l 426 297 l 492 250 l 405 131 l 485 0 z"},"_":{"x_min":0,"x_max":500,"ha":500,"o":"m 500 -178 l 500 -236 l 0 -236 l 0 -178 z"},"v":{"x_min":0,"x_max":328,"ha":328,"o":"m 9 479 l 100 479 l 150 229 q 154 207 158 179 q 161 152 164 119 q 168 159 172 186 q 176 213 179 228 l 228 479 l 319 479 l 199 0 l 129 0 z"},"O":{"x_min":0,"x_max":491,"ha":491,"o":"m 140 358 q 140 207 165 144 q 189 82 247 82 q 304 82 328 141 q 351 200 351 358 q 351 512 327 572 q 303 633 246 633 q 188 633 164 572 q 140 511 140 358 z m 43 356 q 43 552 91 637 q 138 722 246 722 q 354 722 401 637 q 448 553 448 356 q 448 160 401 76 q 354 -9 246 -9 q 138 -9 91 76 q 43 160 43 356 z"},"(":{"x_min":0,"x_max":273,"ha":273,"o":"m 154 -211 q 105 -88 81 35 q 57 159 57 287 q 57 416 81 540 q 105 664 154 786 l 238 759 q 193 649 171 531 q 149 414 149 287 q 149 161 171 44 q 193 -73 238 -184 z"},"C":{"x_min":0,"x_max":381,"ha":381,"o":"m 359 16 q 335 3 311 -3 q 286 -9 259 -9 q 149 -9 95 81 q 41 170 41 350 q 41 534 99 628 q 157 722 270 722 q 295 722 317 717 q 339 712 359 703 l 359 612 q 338 622 320 627 q 301 632 284 632 q 208 632 172 565 q 137 498 137 351 q 137 214 171 149 q 204 83 274 83 q 294 83 314 90 q 335 96 359 110 z"},"W":{"x_min":0,"x_max":603,"ha":603,"o":"m 135 0 l 15 713 l 110 713 l 179 225 l 262 713 l 341 713 l 425 225 l 493 713 l 588 713 l 469 0 l 390 0 l 302 506 l 213 0 z"},"A":{"x_min":0,"x_max":440,"ha":440,"o":"m 220 529 l 156 220 l 284 220 z m 8 0 l 175 713 l 265 713 l 432 0 l 335 0 l 301 140 l 138 140 l 105 0 z"},"f":{"x_min":0,"x_max":218,"ha":218,"o":"m 61 0 l 61 411 l 13 411 l 13 479 l 61 479 l 61 647 q 61 703 89 735 q 116 767 164 767 q 175 767 189 764 q 204 762 221 756 l 221 676 q 211 679 203 681 q 195 682 188 682 q 168 682 159 671 q 150 659 150 634 l 150 479 l 216 479 l 216 411 l 150 411 l 150 0 z"},"Q":{"x_min":0,"x_max":491,"ha":491,"o":"m 397 -55 l 345 17 q 321 4 296 -2 q 271 -8 244 -8 q 137 -8 90 77 q 43 161 43 357 q 43 552 91 637 q 138 722 246 722 q 354 722 401 637 q 448 553 448 357 q 448 249 435 176 q 422 103 396 66 l 454 -14 z m 227 180 l 284 221 l 335 151 q 345 178 349 229 q 353 280 353 370 q 353 515 328 574 q 304 633 246 633 q 187 633 163 572 q 138 512 138 358 q 138 208 162 146 q 187 83 243 83 q 252 83 264 85 q 276 88 290 93 z"},"w":{"x_min":0,"x_max":493,"ha":493,"o":"m 259 235 q 256 254 253 279 q 250 303 246 338 q 243 307 240 281 q 237 254 233 235 l 190 0 l 128 0 l 17 479 l 103 479 l 149 233 q 152 214 155 190 q 158 166 162 131 q 166 167 169 191 q 172 215 175 233 l 218 479 l 275 479 l 319 233 q 324 208 330 141 q 331 135 331 131 q 333 161 337 187 q 340 213 344 233 l 389 479 l 476 479 l 364 0 l 302 0 z"},"-":{"x_min":0,"x_max":273,"ha":273,"o":"m 37 200 l 37 279 l 236 279 l 236 200 z"},"E":{"x_min":0,"x_max":384,"ha":384,"o":"m 61 0 l 61 713 l 346 713 l 346 627 l 157 627 l 157 415 l 330 415 l 330 330 l 157 330 l 157 89 l 346 89 l 346 0 z"},"s":{"x_min":0,"x_max":273,"ha":273,"o":"m 28 101 q 46 85 65 77 q 83 69 102 69 q 130 69 147 85 q 165 102 165 128 q 165 159 117 205 q 110 211 107 214 q 60 258 44 288 q 28 317 28 352 q 28 413 65 451 q 102 489 161 489 q 181 489 199 484 q 218 479 237 469 l 237 379 q 223 396 206 403 q 189 411 167 411 q 143 411 127 396 q 111 380 111 356 q 111 324 157 282 q 167 273 171 269 q 214 229 231 197 q 248 165 248 125 q 248 64 211 28 q 174 -9 112 -9 q 92 -9 71 -4 q 50 0 28 9 z"},">":{"x_min":0,"x_max":833,"ha":833,"o":"m 704 323 l 704 273 l 129 37 l 129 100 l 617 298 l 129 497 l 129 559 z"},"l":{"x_min":0,"x_max":200,"ha":200,"o":"m 56 0 l 56 757 l 144 757 l 144 0 z"},"8":{"x_min":0,"x_max":385,"ha":385,"o":"m 262 387 q 309 371 329 332 q 348 292 348 207 q 348 146 343 118 q 338 89 327 68 q 307 31 272 11 q 237 -9 192 -9 q 156 -9 127 4 q 97 16 76 40 q 54 64 45 98 q 36 131 36 207 q 36 292 56 331 q 76 371 123 387 q 79 407 62 441 q 44 475 44 550 q 44 640 80 681 q 115 722 192 722 q 270 722 305 681 q 341 639 341 550 q 341 475 323 441 q 306 407 262 387 z m 127 213 q 127 134 142 105 q 156 75 192 75 q 228 75 242 103 q 257 131 257 204 q 257 283 242 313 q 228 343 192 343 q 157 343 142 313 q 127 283 127 213 z m 192 424 q 225 424 239 449 q 253 475 253 535 q 253 594 239 619 q 225 644 192 644 q 159 644 146 620 q 132 597 132 535 q 132 473 146 448 q 159 424 192 424 z"},"\\":{"x_min":0,"x_max":277,"ha":277,"o":"m 206 -93 l 0 722 l 70 722 l 276 -93 z"},"e":{"x_min":0,"x_max":362,"ha":362,"o":"m 113 292 l 247 292 l 247 304 q 247 363 231 390 q 216 416 181 416 q 147 416 130 385 q 113 353 113 292 z m 327 160 l 327 154 q 327 78 289 35 q 251 -9 185 -9 q 104 -9 67 51 q 30 111 30 242 q 30 366 67 427 q 104 488 180 488 q 261 488 296 432 q 332 377 332 251 l 332 223 l 113 223 l 113 209 q 113 134 130 100 q 147 66 184 66 q 214 66 229 89 q 245 113 246 160 z"},"b":{"x_min":0,"x_max":391,"ha":391,"o":"m 135 239 q 135 147 150 110 q 166 73 201 73 q 237 73 252 110 q 267 147 267 239 q 267 331 252 368 q 237 405 201 405 q 166 405 150 368 q 135 331 135 239 z m 50 0 l 50 757 l 138 757 l 138 432 q 156 460 179 474 q 202 487 233 487 q 296 487 326 427 q 356 366 356 239 q 356 112 326 52 q 296 -9 233 -9 q 203 -9 179 5 q 156 18 138 47 l 138 0 z"},"%":{"x_min":0,"x_max":768,"ha":768,"o":"m 548 199 q 548 109 559 82 q 571 55 601 55 q 632 55 643 83 q 655 110 655 199 q 655 288 643 315 q 632 343 601 343 q 571 343 559 317 q 548 291 548 199 z m 475 199 q 475 323 502 364 q 530 406 601 406 q 672 406 700 364 q 727 322 727 199 q 727 75 700 33 q 672 -9 601 -9 q 530 -9 502 33 q 475 75 475 199 z m 251 -9 l 189 -9 l 513 722 l 575 722 z m 109 511 q 109 422 121 395 q 132 367 163 367 q 193 367 205 394 q 216 421 216 511 q 216 602 205 628 q 193 655 163 655 q 132 655 121 628 q 109 602 109 511 z m 37 511 q 37 635 64 677 q 92 719 163 719 q 234 719 261 677 q 289 634 289 511 q 289 387 262 345 q 234 303 163 303 q 92 303 64 345 q 37 387 37 511 z"},"m":{"x_min":0,"x_max":600,"ha":600,"o":"m 55 0 l 55 479 l 142 479 l 142 431 q 159 458 183 471 q 208 484 240 484 q 272 484 296 470 q 319 456 337 426 q 356 455 383 469 q 409 484 443 484 q 496 484 521 455 q 547 425 547 365 l 547 0 l 459 0 l 459 322 q 459 371 446 388 q 434 406 402 406 q 373 406 358 387 q 343 369 343 333 l 343 0 l 256 0 l 256 322 q 256 370 243 388 q 230 406 200 406 q 172 406 157 387 q 143 369 143 333 l 143 0 z"},"#":{"x_min":0,"x_max":769,"ha":769,"o":"m 475 421 l 346 421 l 300 288 l 428 288 z m 450 711 l 369 481 l 496 481 l 578 711 l 648 711 l 568 481 l 718 481 l 697 421 l 545 421 l 499 288 l 660 288 l 639 228 l 477 228 l 396 -1 l 325 -1 l 407 228 l 278 228 l 196 -1 l 126 -1 l 207 228 l 51 228 l 72 288 l 228 288 l 275 421 l 108 421 l 129 481 l 297 481 l 379 711 z"},",":{"x_min":0,"x_max":193,"ha":193,"o":"m 166 96 l 75 -155 l 26 -140 l 91 119 z"},"n":{"x_min":0,"x_max":399,"ha":399,"o":"m 55 0 l 55 479 l 142 479 l 142 431 q 160 458 185 471 q 210 484 243 484 q 296 484 322 455 q 347 425 347 365 l 347 0 l 259 0 l 259 322 q 259 371 246 388 q 233 406 202 406 q 173 406 158 387 q 143 369 143 333 l 143 0 z"},"h":{"x_min":0,"x_max":399,"ha":399,"o":"m 55 0 l 55 757 l 143 757 l 143 431 q 158 457 183 470 q 208 484 243 484 q 296 484 322 455 q 347 425 347 365 l 347 0 l 259 0 l 259 322 q 259 371 246 388 q 233 406 202 406 q 173 406 158 387 q 143 369 143 333 l 143 0 z"},"z":{"x_min":0,"x_max":330,"ha":330,"o":"m 13 0 l 191 402 l 24 402 l 24 479 l 317 479 l 138 79 l 303 79 l 303 0 z"},"B":{"x_min":0,"x_max":434,"ha":434,"o":"m 153 407 l 188 407 q 242 407 268 434 q 293 461 293 518 q 293 578 269 603 q 246 628 188 628 l 153 628 z m 153 91 l 185 91 q 251 91 276 116 q 301 142 301 206 q 301 271 274 300 q 248 328 186 328 l 153 328 z m 57 0 l 57 713 l 189 713 q 293 713 340 670 q 387 627 387 532 q 387 461 364 422 q 341 383 291 367 q 347 354 373 316 q 398 277 398 205 q 398 100 349 50 q 300 0 197 0 z"},"K":{"x_min":0,"x_max":435,"ha":435,"o":"m 59 0 l 59 713 l 155 713 l 155 375 l 323 713 l 423 713 l 253 374 l 423 0 l 320 0 l 155 366 l 155 0 z"},"R":{"x_min":0,"x_max":435,"ha":435,"o":"m 160 403 l 190 403 q 249 403 273 430 q 297 458 297 527 q 297 584 274 607 q 250 629 187 629 l 160 629 z m 160 348 l 160 0 l 64 0 l 64 713 l 180 713 q 296 713 345 670 q 394 627 394 527 q 394 448 360 404 q 327 359 260 351 l 429 0 l 326 0 l 163 348 z"},"T":{"x_min":0,"x_max":381,"ha":381,"o":"m 142 0 l 142 624 l 10 624 l 10 713 l 371 713 l 371 624 l 239 624 l 239 0 z"},"P":{"x_min":0,"x_max":438,"ha":438,"o":"m 160 400 l 196 400 q 260 400 288 427 q 315 454 315 516 q 315 576 286 603 q 257 629 189 629 l 160 629 z m 64 0 l 64 713 l 181 713 q 246 713 282 704 q 318 694 345 673 q 376 647 394 605 q 411 563 411 512 q 411 415 354 364 q 297 313 188 313 q 176 313 170 313 q 165 313 160 314 l 160 0 z"},"|":{"x_min":0,"x_max":500,"ha":500,"o":"m 281 764 l 281 -236 l 219 -236 l 219 764 z"},"t":{"x_min":0,"x_max":219,"ha":219,"o":"m 60 0 l 60 414 l 12 414 l 12 479 l 60 479 l 60 609 l 148 609 l 148 479 l 214 479 l 214 414 l 148 414 l 148 0 z"},"M":{"x_min":0,"x_max":559,"ha":559,"o":"m 35 0 l 96 713 l 183 713 l 280 219 l 379 713 l 463 713 l 525 0 l 436 0 l 407 500 l 312 0 l 247 0 l 152 500 l 123 0 z"},"g":{"x_min":0,"x_max":391,"ha":391,"o":"m 124 240 q 124 148 139 111 q 154 74 190 74 q 226 74 241 111 q 256 148 256 240 q 256 332 241 369 q 226 406 190 406 q 154 406 139 369 q 124 332 124 240 z m 341 -11 q 341 -110 304 -152 q 268 -193 183 -193 q 113 -193 76 -157 q 39 -122 39 -56 l 39 -41 l 123 -41 q 124 -80 139 -99 q 154 -118 184 -118 q 221 -118 237 -95 q 253 -72 253 -20 l 253 48 q 235 20 212 6 q 188 -8 158 -8 q 95 -8 65 52 q 35 113 35 240 q 35 367 65 427 q 95 488 158 488 q 189 488 212 475 q 235 461 253 433 l 253 479 l 341 479 z"},"j":{"x_min":0,"x_max":200,"ha":200,"o":"m 44 622 q 44 646 60 663 q 76 679 100 679 q 124 679 140 663 q 156 646 156 622 q 156 599 139 582 q 123 566 100 566 q 76 566 60 582 q 44 598 44 622 z m 56 -193 l 56 479 l 144 479 l 144 -193 z"},"i":{"x_min":0,"x_max":200,"ha":200,"o":"m 44 622 q 44 646 60 663 q 76 679 100 679 q 124 679 140 663 q 156 646 156 622 q 156 599 139 582 q 123 566 100 566 q 76 566 60 582 q 44 598 44 622 z m 56 0 l 56 479 l 144 479 l 144 0 z"},"y":{"x_min":0,"x_max":328,"ha":328,"o":"m 13 479 l 104 479 l 160 165 l 236 479 l 323 479 l 130 -193 l 39 -193 l 113 42 z"},"@":{"x_min":0,"x_max":1000,"ha":1000,"o":"m 631 412 l 659 471 l 713 471 l 644 194 q 641 182 640 172 q 638 163 638 155 q 638 133 652 122 q 665 111 692 111 q 714 111 741 123 q 768 134 791 154 q 834 191 859 250 q 884 309 884 374 q 884 504 788 583 q 693 662 535 662 q 453 662 383 637 q 312 611 256 562 q 188 502 153 424 q 118 346 118 251 q 118 167 148 103 q 177 39 239 -10 q 288 -49 356 -71 q 424 -92 500 -92 q 584 -92 663 -68 q 743 -44 808 0 l 830 -32 q 758 -85 677 -113 q 596 -140 508 -140 q 415 -140 338 -117 q 261 -95 203 -50 q 128 7 92 83 q 55 159 55 255 q 55 334 80 406 q 104 477 153 537 q 224 623 323 667 q 423 712 545 712 q 625 712 697 691 q 768 669 818 630 q 881 582 913 518 q 946 454 946 380 q 946 297 915 229 q 885 161 826 114 q 792 87 754 73 q 715 59 674 59 q 625 59 601 78 q 577 97 577 135 q 577 136 578 140 q 578 144 578 146 q 553 104 516 81 q 479 59 433 59 q 358 59 319 101 q 280 142 280 221 q 280 333 347 411 q 414 489 509 489 q 553 489 584 469 q 614 450 631 412 z m 587 231 l 616 349 q 608 393 581 417 q 554 442 515 442 q 444 442 396 378 q 348 313 348 218 q 348 164 373 135 q 398 106 444 106 q 494 106 533 140 q 573 175 587 231 z"},".":{"x_min":0,"x_max":193,"ha":193,"o":"m 41 45 q 41 68 57 85 q 73 101 96 101 q 119 101 135 85 q 152 68 152 45 q 152 22 136 6 q 120 -10 96 -10 q 73 -10 57 6 q 41 22 41 45 z"},"p":{"x_min":0,"x_max":391,"ha":391,"o":"m 135 240 q 135 148 150 111 q 166 74 201 74 q 237 74 252 111 q 267 148 267 240 q 267 332 252 369 q 237 406 201 406 q 166 406 150 369 q 135 332 135 240 z m 50 -193 l 50 479 l 138 479 l 138 433 q 156 461 179 475 q 202 488 233 488 q 296 488 326 427 q 356 367 356 240 q 356 113 326 52 q 296 -8 233 -8 q 203 -8 179 6 q 156 20 138 48 l 138 -193 z"},"X":{"x_min":0,"x_max":383,"ha":383,"o":"m 11 0 l 142 363 l 18 713 l 114 713 l 192 479 l 269 713 l 365 713 l 241 363 l 372 0 l 271 0 l 192 248 l 112 0 z"},"*":{"x_min":0,"x_max":381,"ha":381,"o":"m 167 409 l 167 519 l 71 465 l 47 506 l 143 561 l 47 617 l 71 658 l 167 603 l 167 713 l 215 713 l 215 603 l 310 658 l 334 616 l 238 561 l 334 506 l 310 465 l 215 520 l 215 409 z"},"Y":{"x_min":0,"x_max":385,"ha":385,"o":"m 241 303 l 241 0 l 142 0 l 142 303 l 8 713 l 107 713 l 167 514 q 173 495 179 465 q 186 436 192 400 q 197 431 203 459 q 209 487 217 513 l 277 713 l 377 713 z"},"c":{"x_min":0,"x_max":255,"ha":255,"o":"m 242 8 q 224 -1 206 -5 q 188 -10 170 -10 q 98 -10 63 51 q 29 111 29 239 q 29 361 63 425 q 98 488 165 488 q 186 488 205 483 q 224 479 242 469 l 242 385 q 230 396 218 402 q 207 407 194 407 q 156 407 137 364 q 118 321 118 235 q 118 155 136 116 q 155 77 192 77 q 205 77 218 82 q 230 87 242 98 z"},"!":{"x_min":0,"x_max":272,"ha":272,"o":"m 80 46 q 80 69 96 86 q 113 102 136 102 q 159 102 175 86 q 191 69 191 46 q 191 23 175 7 q 159 -9 136 -9 q 113 -9 96 7 q 80 23 80 46 z m 92 174 l 92 713 l 180 713 l 180 174 z"},"/":{"x_min":0,"x_max":277,"ha":277,"o":"m 0 -93 l 206 722 l 277 722 l 71 -93 z"},"[":{"x_min":0,"x_max":273,"ha":273,"o":"m 69 -187 l 69 762 l 252 762 l 252 684 l 157 684 l 157 -109 l 252 -109 l 252 -187 z"},"6":{"x_min":0,"x_max":385,"ha":385,"o":"m 121 219 q 121 145 138 110 q 156 76 194 76 q 231 76 248 110 q 265 145 265 220 q 265 298 248 330 q 231 362 192 362 q 155 362 138 328 q 121 295 121 219 z m 137 406 q 155 424 175 433 q 195 442 218 442 q 289 442 321 391 q 352 341 352 224 q 352 104 313 47 q 274 -10 192 -10 q 112 -10 73 50 q 33 110 33 231 q 33 328 66 432 q 99 536 193 713 l 298 713 q 237 607 199 534 q 161 460 137 406 z"},"r":{"x_min":0,"x_max":271,"ha":271,"o":"m 56 0 l 56 479 l 141 479 l 141 409 q 159 447 188 467 q 216 486 257 488 l 257 395 l 242 395 q 191 395 167 369 q 143 344 143 289 l 143 0 z"},"2":{"x_min":0,"x_max":385,"ha":385,"o":"m 16 0 l 206 378 q 231 428 243 470 q 256 512 256 546 q 256 593 240 616 q 224 639 191 639 q 154 639 139 609 q 123 579 123 506 l 123 481 l 33 481 q 32 488 32 495 q 32 502 32 517 q 32 619 73 671 q 114 722 196 722 q 270 722 312 675 q 354 628 354 546 q 354 498 338 446 q 321 395 282 323 l 155 91 l 340 91 l 340 0 z"},"{":{"x_min":0,"x_max":500,"ha":500,"o":"m 419 659 q 415 659 408 660 q 400 660 397 660 q 338 660 317 637 q 296 614 296 541 l 296 423 q 296 342 275 308 q 253 274 199 259 q 253 244 275 210 q 296 176 296 95 l 296 -23 q 296 -96 317 -118 q 338 -141 400 -141 l 419 -141 l 419 -202 l 402 -202 q 354 -202 324 -196 q 294 -190 274 -177 q 247 -159 236 -128 q 225 -97 225 -24 l 225 95 q 225 169 198 199 q 171 229 106 229 q 103 229 95 229 q 88 228 84 228 l 84 290 q 88 290 95 290 q 103 289 106 289 q 171 289 198 319 q 225 349 225 424 l 225 543 q 225 618 236 648 q 247 679 274 696 q 294 709 324 715 q 353 721 402 721 l 419 721 z"},"9":{"x_min":0,"x_max":385,"ha":385,"o":"m 264 494 q 264 568 246 603 q 229 637 190 637 q 153 637 137 603 q 120 569 120 493 q 120 414 136 383 q 153 351 192 351 q 230 351 247 385 q 264 419 264 494 z m 248 307 q 229 289 210 280 q 190 271 167 271 q 96 271 65 322 q 33 372 33 489 q 33 609 72 666 q 111 723 193 723 q 272 723 312 663 q 351 603 351 481 q 351 384 318 281 q 286 178 191 0 l 87 0 q 155 120 189 186 q 224 251 248 307 z"}," ":{"x_min":0,"x_max":193,"ha":193,"o":""},"I":{"x_min":0,"x_max":225,"ha":225,"o":"m 64 0 l 64 713 l 160 713 l 160 0 z"},"H":{"x_min":0,"x_max":492,"ha":492,"o":"m 64 0 l 64 713 l 160 713 l 160 442 l 332 442 l 332 713 l 428 713 l 428 0 l 332 0 l 332 352 l 160 352 l 160 0 z"},"4":{"x_min":0,"x_max":385,"ha":385,"o":"m 215 274 l 215 556 l 87 274 z m 213 0 l 213 194 l 20 194 l 20 285 l 221 713 l 303 713 l 303 274 l 354 274 l 354 194 l 303 194 l 303 0 z"},"~":{"x_min":0,"x_max":833,"ha":833,"o":"m 747 306 q 698 271 651 253 q 604 236 558 236 q 537 236 514 240 q 491 245 465 253 q 450 258 422 268 q 324 303 275 303 q 234 303 190 285 q 146 267 87 225 l 87 290 q 138 326 186 343 q 233 361 276 361 q 303 361 333 355 q 362 349 418 329 q 425 327 439 321 q 517 293 559 293 q 600 293 644 311 q 688 329 747 370 z"},"D":{"x_min":0,"x_max":495,"ha":495,"o":"m 161 92 l 211 92 q 292 92 325 150 q 358 209 358 358 q 358 506 325 565 q 292 623 211 623 l 161 623 z m 64 0 l 64 713 l 191 713 q 336 713 396 633 q 455 553 455 357 q 455 160 396 80 q 336 0 191 0 z"},"^":{"x_min":0,"x_max":1000,"ha":1000,"o":"m 539 712 l 793 440 l 716 440 l 500 654 l 284 440 l 206 440 l 460 712 z"},"0":{"x_min":0,"x_max":385,"ha":385,"o":"m 124 357 q 124 180 139 128 q 154 75 193 75 q 231 75 246 126 q 261 178 261 357 q 261 537 246 588 q 231 639 193 639 q 154 639 139 587 q 124 534 124 357 z m 31 356 q 31 473 36 532 q 42 591 54 621 q 75 674 108 698 q 141 722 193 722 q 245 722 277 698 q 310 674 331 621 q 343 590 349 531 q 354 472 354 356 q 354 240 349 181 q 343 123 331 92 q 310 39 277 15 q 245 -9 193 -9 q 141 -9 108 15 q 75 39 54 92 q 42 122 36 181 q 31 240 31 356 z"},"F":{"x_min":0,"x_max":384,"ha":384,"o":"m 64 0 l 64 713 l 356 713 l 356 627 l 160 627 l 160 414 l 340 414 l 340 329 l 160 329 l 160 0 z"},"`":{"x_min":0,"x_max":500,"ha":500,"o":"m 308 544 l 257 544 l 141 713 l 228 713 z"},"k":{"x_min":0,"x_max":383,"ha":383,"o":"m 58 0 l 58 757 l 146 757 l 146 266 l 273 479 l 367 479 l 235 259 l 373 0 l 278 0 l 146 252 l 146 0 z"},"u":{"x_min":0,"x_max":399,"ha":399,"o":"m 53 141 l 53 479 l 141 479 l 141 136 q 141 103 156 86 q 170 69 199 69 q 228 69 242 86 q 257 103 257 136 l 257 479 l 346 479 l 346 141 q 346 62 311 27 q 276 -9 199 -9 q 122 -9 88 27 q 53 62 53 141 z"},"]":{"x_min":0,"x_max":273,"ha":273,"o":"m 21 -187 l 21 -109 l 115 -109 l 115 684 l 21 684 l 21 762 l 203 762 l 203 -187 z"},"U":{"x_min":0,"x_max":492,"ha":492,"o":"m 58 190 l 58 713 l 153 713 l 153 182 q 153 131 176 106 q 199 82 246 82 q 293 82 316 106 q 339 131 339 182 l 339 713 l 434 713 l 434 190 q 434 86 389 39 q 344 -9 246 -9 q 148 -9 103 39 q 58 86 58 190 z"},"o":{"x_min":0,"x_max":383,"ha":383,"o":"m 119 241 q 119 153 136 113 q 154 72 191 72 q 229 72 246 113 q 264 154 264 241 q 264 328 246 369 q 229 410 191 410 q 154 410 136 369 q 119 329 119 241 z m 30 240 q 30 361 71 425 q 112 488 191 488 q 270 488 311 425 q 352 361 352 240 q 352 118 311 55 q 270 -9 191 -9 q 112 -9 71 55 q 30 118 30 240 z"},"N":{"x_min":0,"x_max":495,"ha":495,"o":"m 63 0 l 63 713 l 152 713 l 341 218 l 341 713 l 432 713 l 432 0 l 342 0 l 154 499 l 154 0 z"},"+":{"x_min":0,"x_max":833,"ha":833,"o":"m 446 596 l 446 327 l 709 327 l 709 270 l 446 270 l 446 0 l 388 0 l 388 270 l 124 270 l 124 327 l 388 327 l 388 596 z"},"G":{"x_min":0,"x_max":490,"ha":490,"o":"m 451 383 q 453 360 453 339 q 454 317 454 298 q 454 141 403 66 q 352 -9 246 -9 q 137 -9 88 76 q 39 161 39 356 q 39 553 88 638 q 137 722 249 722 q 328 722 376 685 q 425 647 443 572 l 358 531 q 348 583 321 608 q 294 634 250 634 q 188 634 162 574 q 136 514 136 358 q 136 203 162 143 q 188 82 250 82 q 306 82 334 128 q 362 174 362 265 q 362 279 362 286 q 361 293 361 299 l 259 299 l 259 383 z"},"q":{"x_min":0,"x_max":391,"ha":391,"o":"m 124 240 q 124 148 139 111 q 154 74 190 74 q 226 74 241 111 q 256 148 256 240 q 256 332 241 369 q 226 406 190 406 q 154 406 139 369 q 124 332 124 240 z m 253 -193 l 253 47 q 235 18 212 5 q 188 -9 158 -9 q 95 -9 65 52 q 35 112 35 240 q 35 367 65 427 q 95 488 158 488 q 188 488 212 474 q 235 461 253 432 l 253 479 l 341 479 l 341 -193 z"},"d":{"x_min":0,"x_max":391,"ha":391,"o":"m 124 239 q 124 147 139 110 q 154 73 190 73 q 226 73 241 110 q 256 147 256 239 q 256 331 241 368 q 226 405 190 405 q 154 405 139 368 q 124 331 124 239 z m 253 0 l 253 47 q 235 18 212 5 q 188 -9 158 -9 q 95 -9 65 52 q 35 112 35 239 q 35 366 65 427 q 95 487 158 487 q 189 487 212 474 q 235 460 253 432 l 253 757 l 341 757 l 341 0 z"},"1":{"x_min":0,"x_max":385,"ha":385,"o":"m 158 0 l 158 627 l 70 627 l 70 713 l 247 713 l 247 0 z"},"5":{"x_min":0,"x_max":385,"ha":385,"o":"m 31 110 q 54 93 77 85 q 101 77 125 77 q 188 77 220 121 q 252 165 252 251 q 252 316 219 349 q 187 382 122 382 q 97 382 78 379 q 59 377 41 372 l 88 713 l 337 713 l 337 625 l 163 625 l 135 451 q 149 454 161 455 q 172 456 181 456 q 254 456 298 399 q 343 342 343 247 q 343 126 289 59 q 235 -9 138 -9 q 103 -9 71 0 q 38 8 7 25 z"}}}
